<mxfile host="app.diagrams.net" modified="2023-10-14T02:48:40.260Z" agent="Mozilla/5.0 (Windows NT 10.0; Win64; x64) AppleWebKit/537.36 (KHTML, like Gecko) Chrome/117.0.0.0 Safari/537.36" etag="zdLtnqv-954SnvxUBhCP" version="21.6.6" type="github">
  <diagram name="Page-1" id="pOELt78bewWW-ezFTZRW">
    <mxGraphModel dx="1909" dy="-481" grid="1" gridSize="10" guides="1" tooltips="1" connect="1" arrows="1" fold="1" page="1" pageScale="1" pageWidth="850" pageHeight="1100" background="#ffffff" math="0" shadow="1">
      <root>
        <mxCell id="0" />
        <mxCell id="1" parent="0" />
        <mxCell id="Ef24yYUR18RKYfWtKhXM-10" style="edgeStyle=orthogonalEdgeStyle;rounded=1;orthogonalLoop=1;jettySize=auto;html=1;sketch=1;curveFitting=1;jiggle=2;" edge="1" parent="1" source="Ef24yYUR18RKYfWtKhXM-2">
          <mxGeometry relative="1" as="geometry">
            <mxPoint x="-410" y="1300" as="targetPoint" />
          </mxGeometry>
        </mxCell>
        <mxCell id="Ef24yYUR18RKYfWtKhXM-2" value="NGINIX&amp;nbsp;" style="rounded=1;whiteSpace=wrap;html=1;fillColor=#97D077;sketch=1;curveFitting=1;jiggle=2;" vertex="1" parent="1">
          <mxGeometry x="-620" y="1270" width="120" height="60" as="geometry" />
        </mxCell>
        <mxCell id="Ef24yYUR18RKYfWtKhXM-8" value="" style="rounded=1;whiteSpace=wrap;html=1;fillColor=#E6E6E6;sketch=1;curveFitting=1;jiggle=2;" vertex="1" parent="1">
          <mxGeometry x="-410" y="1130" width="380" height="330" as="geometry" />
        </mxCell>
        <mxCell id="Ef24yYUR18RKYfWtKhXM-21" value="" style="edgeStyle=orthogonalEdgeStyle;rounded=1;orthogonalLoop=1;jettySize=auto;html=1;sketch=1;curveFitting=1;jiggle=2;" edge="1" parent="1" source="Ef24yYUR18RKYfWtKhXM-4" target="Ef24yYUR18RKYfWtKhXM-17">
          <mxGeometry relative="1" as="geometry" />
        </mxCell>
        <mxCell id="Ef24yYUR18RKYfWtKhXM-4" value="" style="rounded=1;whiteSpace=wrap;html=1;fillColor=#97D077;sketch=1;curveFitting=1;jiggle=2;" vertex="1" parent="1">
          <mxGeometry x="-390" y="1170" width="120" height="60" as="geometry" />
        </mxCell>
        <mxCell id="Ef24yYUR18RKYfWtKhXM-22" value="" style="edgeStyle=orthogonalEdgeStyle;rounded=1;orthogonalLoop=1;jettySize=auto;html=1;sketch=1;curveFitting=1;jiggle=2;" edge="1" parent="1" source="Ef24yYUR18RKYfWtKhXM-5" target="Ef24yYUR18RKYfWtKhXM-18">
          <mxGeometry relative="1" as="geometry" />
        </mxCell>
        <mxCell id="Ef24yYUR18RKYfWtKhXM-5" value="&lt;b style=&quot;border-color: var(--border-color);&quot;&gt;S2&lt;/b&gt;" style="rounded=1;whiteSpace=wrap;html=1;fillColor=#97D077;sketch=1;curveFitting=1;jiggle=2;" vertex="1" parent="1">
          <mxGeometry x="-389" y="1260" width="120" height="60" as="geometry" />
        </mxCell>
        <mxCell id="Ef24yYUR18RKYfWtKhXM-23" value="" style="edgeStyle=orthogonalEdgeStyle;rounded=1;orthogonalLoop=1;jettySize=auto;html=1;sketch=1;curveFitting=1;jiggle=2;" edge="1" parent="1" source="Ef24yYUR18RKYfWtKhXM-6" target="Ef24yYUR18RKYfWtKhXM-19">
          <mxGeometry relative="1" as="geometry" />
        </mxCell>
        <mxCell id="Ef24yYUR18RKYfWtKhXM-6" value="&lt;b&gt;S3&lt;/b&gt;" style="rounded=1;whiteSpace=wrap;html=1;fillColor=#97D077;sketch=1;curveFitting=1;jiggle=2;" vertex="1" parent="1">
          <mxGeometry x="-390" y="1350" width="120" height="60" as="geometry" />
        </mxCell>
        <mxCell id="Ef24yYUR18RKYfWtKhXM-17" value="POD" style="rounded=1;whiteSpace=wrap;html=1;fillColor=#FFFF66;strokeColor=#FFD966;sketch=1;curveFitting=1;jiggle=2;" vertex="1" parent="1">
          <mxGeometry x="-190" y="1170" width="120" height="60" as="geometry" />
        </mxCell>
        <mxCell id="Ef24yYUR18RKYfWtKhXM-18" value="&lt;b&gt;POD&lt;/b&gt;" style="rounded=1;whiteSpace=wrap;html=1;fillColor=#FFFF66;sketch=1;curveFitting=1;jiggle=2;" vertex="1" parent="1">
          <mxGeometry x="-190" y="1260" width="120" height="60" as="geometry" />
        </mxCell>
        <mxCell id="Ef24yYUR18RKYfWtKhXM-19" value="POD" style="rounded=1;whiteSpace=wrap;html=1;fillColor=#FFFF00;sketch=1;curveFitting=1;jiggle=2;" vertex="1" parent="1">
          <mxGeometry x="-190" y="1350" width="120" height="60" as="geometry" />
        </mxCell>
        <mxCell id="Ef24yYUR18RKYfWtKhXM-28" value="" style="edgeStyle=orthogonalEdgeStyle;rounded=1;orthogonalLoop=1;jettySize=auto;html=1;sketch=1;curveFitting=1;jiggle=2;" edge="1" parent="1" source="Ef24yYUR18RKYfWtKhXM-24">
          <mxGeometry relative="1" as="geometry">
            <mxPoint x="-770" y="1300" as="targetPoint" />
          </mxGeometry>
        </mxCell>
        <object label="Actor" id="Ef24yYUR18RKYfWtKhXM-24">
          <mxCell style="shape=umlActor;verticalLabelPosition=bottom;verticalAlign=top;html=1;outlineConnect=0;rounded=1;sketch=1;curveFitting=1;jiggle=2;" vertex="1" parent="1">
            <mxGeometry x="-840" y="1271" width="30" height="60" as="geometry" />
          </mxCell>
        </object>
        <mxCell id="Ef24yYUR18RKYfWtKhXM-29" value="" style="edgeStyle=orthogonalEdgeStyle;rounded=1;orthogonalLoop=1;jettySize=auto;html=1;sketch=1;curveFitting=1;jiggle=2;" edge="1" parent="1" source="Ef24yYUR18RKYfWtKhXM-26" target="Ef24yYUR18RKYfWtKhXM-2">
          <mxGeometry relative="1" as="geometry" />
        </mxCell>
        <mxCell id="Ef24yYUR18RKYfWtKhXM-26" value="URL" style="ellipse;whiteSpace=wrap;html=1;fillColor=#97D077;rounded=1;sketch=1;curveFitting=1;jiggle=2;" vertex="1" parent="1">
          <mxGeometry x="-770" y="1260" width="120" height="80" as="geometry" />
        </mxCell>
        <mxCell id="Ef24yYUR18RKYfWtKhXM-30" value="&lt;b&gt;S1&lt;/b&gt;" style="text;html=1;strokeColor=none;fillColor=none;align=center;verticalAlign=middle;whiteSpace=wrap;rounded=1;sketch=1;curveFitting=1;jiggle=2;" vertex="1" parent="1">
          <mxGeometry x="-370" y="1185" width="60" height="30" as="geometry" />
        </mxCell>
        <mxCell id="Ef24yYUR18RKYfWtKhXM-31" value="K8 Cluster" style="text;html=1;strokeColor=none;fillColor=none;align=center;verticalAlign=middle;whiteSpace=wrap;rounded=1;sketch=1;curveFitting=1;jiggle=2;" vertex="1" parent="1">
          <mxGeometry x="-250" y="1130" width="60" height="30" as="geometry" />
        </mxCell>
        <mxCell id="Ef24yYUR18RKYfWtKhXM-32" value="POD" style="rounded=1;whiteSpace=wrap;html=1;fillColor=#FFFF66;strokeColor=#FFD966;sketch=1;curveFitting=1;jiggle=2;" vertex="1" parent="1">
          <mxGeometry x="-180" y="1180" width="120" height="60" as="geometry" />
        </mxCell>
        <mxCell id="Ef24yYUR18RKYfWtKhXM-33" value="POD" style="rounded=1;whiteSpace=wrap;html=1;fillColor=#FFFF66;strokeColor=#FFD966;sketch=1;curveFitting=1;jiggle=2;" vertex="1" parent="1">
          <mxGeometry x="-170" y="1190" width="120" height="60" as="geometry" />
        </mxCell>
        <mxCell id="Ef24yYUR18RKYfWtKhXM-34" value="&lt;b&gt;POD&lt;/b&gt;" style="rounded=1;whiteSpace=wrap;html=1;fillColor=#FFFF66;sketch=1;curveFitting=1;jiggle=2;" vertex="1" parent="1">
          <mxGeometry x="-180" y="1270" width="120" height="60" as="geometry" />
        </mxCell>
        <mxCell id="Ef24yYUR18RKYfWtKhXM-35" value="&lt;b&gt;POD&lt;/b&gt;" style="rounded=1;whiteSpace=wrap;html=1;fillColor=#FFFF66;sketch=1;curveFitting=1;jiggle=2;" vertex="1" parent="1">
          <mxGeometry x="-170" y="1280" width="120" height="60" as="geometry" />
        </mxCell>
        <mxCell id="Ef24yYUR18RKYfWtKhXM-36" value="&lt;b&gt;POD&lt;/b&gt;" style="rounded=1;whiteSpace=wrap;html=1;fillColor=#FFFF66;sketch=1;curveFitting=1;jiggle=2;" vertex="1" parent="1">
          <mxGeometry x="-160" y="1290" width="120" height="60" as="geometry" />
        </mxCell>
        <mxCell id="Ef24yYUR18RKYfWtKhXM-37" value="POD" style="rounded=1;whiteSpace=wrap;html=1;fillColor=#FFFF66;strokeColor=#FFD966;sketch=1;curveFitting=1;jiggle=2;" vertex="1" parent="1">
          <mxGeometry x="-160" y="1200" width="120" height="60" as="geometry" />
        </mxCell>
        <mxCell id="Ef24yYUR18RKYfWtKhXM-38" value="POD" style="rounded=1;whiteSpace=wrap;html=1;fillColor=#FFFF00;sketch=1;curveFitting=1;jiggle=2;" vertex="1" parent="1">
          <mxGeometry x="-180" y="1360" width="120" height="60" as="geometry" />
        </mxCell>
        <mxCell id="Ef24yYUR18RKYfWtKhXM-39" value="POD" style="rounded=1;whiteSpace=wrap;html=1;fillColor=#FFFF00;sketch=1;curveFitting=1;jiggle=2;" vertex="1" parent="1">
          <mxGeometry x="-170" y="1370" width="120" height="60" as="geometry" />
        </mxCell>
        <mxCell id="Ef24yYUR18RKYfWtKhXM-40" value="POD" style="rounded=1;whiteSpace=wrap;html=1;fillColor=#FFFF00;sketch=1;curveFitting=1;jiggle=2;" vertex="1" parent="1">
          <mxGeometry x="-160" y="1380" width="120" height="60" as="geometry" />
        </mxCell>
      </root>
    </mxGraphModel>
  </diagram>
</mxfile>
